<?xml version="1.0" encoding="utf-8"?>
<!-- Generator: Adobe Illustrator 16.0.0, SVG Export Plug-In . SVG Version: 6.00 Build 0)  -->
<!DOCTYPE svg PUBLIC "-//W3C//DTD SVG 1.1//EN" "http://www.w3.org/Graphics/SVG/1.1/DTD/svg11.dtd">
<svg version="1.1" id="Layer_1" xmlns="http://www.w3.org/2000/svg" xmlns:xlink="http://www.w3.org/1999/xlink" x="0px" y="0px"
	 width="75.19px" height="84.429px" viewBox="0 0 75.19 84.429" style="enable-background:new 0 0 75.19 84.429;"
	 xml:space="preserve">
<style type="text/css">
<![CDATA[
	.st0{fill-rule:evenodd;clip-rule:evenodd;}
]]>
</style>
<g id="_x36_CenterHex">
	<path class="st0" d="M24.685,53.578c-0.073,1.168-0.146,2.336-0.221,3.504c-0.014,0.212-0.075,0.434-0.037,0.636
		c0.271,1.44-0.154,2.862-0.095,4.296c0.038,0.901-0.358,1.515-1.176,1.897c-1.155,0.542-2.29,1.128-3.446,1.667
		c-2.315,1.081-4.639,2.145-6.963,3.209c-0.338,0.154-0.685,0.305-1.042,0.4c-0.8,0.214-1.583,0.172-2.314-0.263
		c-0.138-0.082-0.278-0.159-0.411-0.248c-2.255-1.522-4.689-2.73-7.07-4.032c-0.28-0.152-0.546-0.332-0.809-0.514
		c-0.657-0.451-1.007-1.084-1.071-1.874c-0.021-0.266-0.041-0.534-0.021-0.799c0.208-2.92,0.205-5.846,0.179-8.77
		c-0.009-1.013,0.366-1.734,1.163-2.301c2.125-1.511,4.217-3.068,6.448-4.429c0.861-0.526,1.648-1.173,2.49-1.733
		c1.965-1.307,2.312-1.287,4.375-0.215c1.558,0.81,2.999,1.838,4.65,2.471c0.099,0.037,0.205,0.078,0.282,0.146
		c1.052,0.93,2.332,1.484,3.554,2.123c1.079,0.564,1.537,1.402,1.497,2.586c-0.026,0.745-0.005,1.492-0.005,2.238
		C24.655,53.576,24.67,53.577,24.685,53.578z"/>
	<path class="st0" d="M50.52,57.476c-0.062-1.811,0.062-3.624-0.209-5.427c-0.016-0.104-0.01-0.214,0.001-0.319
		c0.194-2.086,0.106-1.998,1.738-2.891c2.338-1.278,4.674-2.561,7.009-3.843c0.747-0.41,1.494-0.82,2.232-1.245
		c0.863-0.498,1.628-0.496,2.522,0.083c2.009,1.298,3.896,2.767,5.898,4.071c1.115,0.727,2.186,1.528,3.33,2.207
		c1.28,0.76,1.852,1.859,1.872,3.301c0.01,0.692,0.015,1.386,0.014,2.079c-0.002,1.759-0.007,3.518-0.015,5.277
		c-0.002,0.373-0.049,0.748-0.024,1.118c0.085,1.282-0.528,2.119-1.624,2.691c-0.803,0.419-1.587,0.874-2.377,1.318
		c-1.672,0.939-3.351,1.867-5.011,2.827c-1.666,0.963-1.989,1.004-3.723,0.188c-3.229-1.521-6.452-3.053-9.677-4.582
		c-0.289-0.137-0.57-0.291-0.859-0.427c-0.762-0.357-1.101-0.968-1.1-1.793C50.521,60.566,50.52,59.021,50.52,57.476z"/>
	<path class="st0" d="M0.264,27.083c0-1.544,0.042-3.091-0.015-4.633c-0.041-1.112,0.464-1.788,1.39-2.295
		c2.753-1.509,5.501-3.029,8.232-4.579c0.911-0.517,1.782-0.626,2.727-0.138c0.898,0.463,1.807,0.91,2.722,1.339
		c1.688,0.792,3.386,1.558,5.074,2.348c1.107,0.519,2.204,1.062,3.307,1.592c0.633,0.305,0.977,0.776,0.969,1.51
		c-0.014,1.277,0,2.555,0.021,3.833c0.015,0.957,0.086,1.913,0.08,2.869c-0.01,1.648-0.049,3.297-0.1,4.945
		c-0.016,0.5-0.25,0.928-0.673,1.215c-0.484,0.328-0.971,0.66-1.48,0.944c-1.627,0.907-3.266,1.793-4.899,2.689
		c-1.353,0.741-2.714,1.466-4.052,2.233c-0.622,0.357-1.195,0.378-1.801,0.004c-0.407-0.252-0.84-0.466-1.235-0.734
		c-1.189-0.807-2.363-1.637-3.549-2.45c-1.624-1.114-3.257-2.216-4.879-3.333c-1.844-1.271-1.87-1.34-1.855-3.525
		c0.009-1.278,0.001-2.556,0.001-3.834C0.253,27.083,0.259,27.083,0.264,27.083z"/>
	<path class="st0" d="M25.501,66.878c0-0.676-0.006-1.263,0.001-1.849c0.007-0.572,0.235-1.025,0.735-1.334
		c1.856-1.147,3.646-2.403,5.603-3.392c1.14-0.576,2.211-1.285,3.312-1.936c0.184-0.108,0.374-0.209,0.544-0.337
		c1.308-0.985,2.542-0.749,3.826,0.111c2.08,1.395,4.207,2.714,6.418,3.897c0.937,0.502,1.802,1.136,2.7,1.71
		c0.439,0.281,0.669,0.689,0.666,1.204c-0.004,0.799,0.003,1.602-0.067,2.396c-0.131,1.486-0.317,2.968-0.475,4.451
		c-0.039,0.371-0.05,0.744-0.082,1.116c-0.138,1.592-0.282,3.183-0.417,4.774c-0.06,0.703-0.444,1.179-1.033,1.518
		c-1.431,0.825-2.853,1.666-4.296,2.471c-1.489,0.83-3.01,1.605-4.495,2.442c-0.667,0.376-1.272,0.426-1.951,0.04
		c-1.621-0.922-3.266-1.802-4.892-2.715c-0.929-0.521-1.838-1.078-2.759-1.613c-0.276-0.16-0.568-0.294-0.846-0.454
		c-0.99-0.569-1.588-1.409-1.688-2.56c-0.073-0.849-0.093-1.702-0.161-2.552c-0.12-1.485-0.26-2.968-0.391-4.451
		C25.667,68.809,25.58,67.801,25.501,66.878z"/>
	<path class="st0" d="M49.65,19.4c0.069,0.792-0.309,1.31-0.971,1.692c-1.66,0.958-3.312,1.934-4.967,2.902
		c-1.609,0.941-3.236,1.855-4.823,2.833c-0.823,0.507-1.568,0.526-2.391,0.033c-3.149-1.892-6.286-3.808-9.481-5.619
		c-1.021-0.579-1.269-1.342-1.178-2.371c0.323-3.66,0.685-7.316,0.953-10.98c0.105-1.441,0.823-2.374,1.993-3.059
		c0.781-0.458,1.573-0.897,2.368-1.333c1.494-0.819,2.995-1.626,4.488-2.447c0.278-0.153,0.557-0.321,0.798-0.526
		c0.863-0.735,1.747-0.631,2.659-0.112c0.788,0.447,1.588,0.874,2.368,1.333c1.837,1.078,3.666,2.168,5.497,3.256
		c0.229,0.136,0.446,0.292,0.676,0.427c0.597,0.35,0.913,0.858,0.973,1.554c0.112,1.325,0.268,2.647,0.377,3.973
		c0.21,2.548,0.399,5.098,0.599,7.647C49.609,18.869,49.63,19.135,49.65,19.4z"/>
	<path class="st0" d="M75.189,26.771c-0.143,1.724,0.002,3.64-0.251,5.548c-0.109,0.821-0.425,1.442-1.097,1.834
		c-2.023,1.182-3.803,2.726-5.86,3.862c-0.97,0.536-1.807,1.308-2.723,1.945c-0.611,0.424-1.254,0.804-1.888,1.195
		c-0.444,0.275-0.909,0.262-1.376,0.057c-0.195-0.085-0.394-0.167-0.58-0.269c-1.308-0.715-2.643-1.386-3.911-2.165
		c-1.454-0.893-2.941-1.715-4.459-2.491c-0.614-0.314-1.193-0.698-1.775-1.072c-0.428-0.275-0.664-0.692-0.702-1.197
		c-0.033-0.424-0.081-0.858-0.024-1.275c0.329-2.386,0.156-4.786,0.224-7.178c0.025-0.904,0.049-1.811,0.017-2.714
		c-0.041-1.15,0.42-1.904,1.498-2.368c2.394-1.028,4.768-2.106,7.141-3.181c0.97-0.439,1.918-0.925,2.878-1.386
		c0.287-0.138,0.571-0.293,0.872-0.393c0.735-0.244,1.465-0.25,2.163,0.146c1.388,0.787,2.771,1.583,4.166,2.358
		c1.02,0.567,2.058,1.101,3.08,1.664c0.512,0.282,1.002,0.602,1.511,0.89c0.725,0.41,1.007,1.071,1.068,1.853
		c0.029,0.371,0.027,0.745,0.028,1.117C75.192,24.564,75.189,25.576,75.189,26.771z"/>
</g>
<path class="st0" d="M25.589,42.213c0-1.492-0.006-2.984,0.004-4.477c0.002-0.425,0.013-0.855,0.083-1.272
	c0.091-0.54,0.338-1.028,0.817-1.323c0.9-0.553,1.662-1.35,2.762-1.559c0.2-0.039,0.385-0.177,0.568-0.285
	c1.93-1.131,3.856-2.268,5.786-3.397c0.321-0.188,0.646-0.378,0.987-0.522c0.828-0.349,1.651-0.379,2.455,0.098
	c1.054,0.625,2.113,1.241,3.17,1.861c1.974,1.158,3.935,2.341,5.928,3.466c0.998,0.563,1.407,1.32,1.354,2.479
	c-0.063,1.379,0.048,2.765,0.081,4.148c0.039,1.545,0.05,3.086-0.169,4.625c-0.097,0.683-0.061,1.383-0.095,2.074
	c-0.033,0.693-0.358,1.199-0.968,1.548c-1.618,0.928-3.215,1.893-4.841,2.806c-1.579,0.887-3.2,1.7-4.772,2.599
	c-0.831,0.475-1.586,0.47-2.409,0.011c-1.908-1.062-3.853-2.058-5.745-3.146c-1.384-0.797-2.704-1.705-4.062-2.549
	c-0.543-0.336-0.832-0.814-0.896-1.432c-0.039-0.369-0.053-0.744-0.054-1.116c-0.006-1.546-0.003-3.091-0.003-4.636
	C25.577,42.213,25.583,42.213,25.589,42.213z"/>
<g id="InnerStarPoints">
	<path class="st0" d="M50.504,42.207c0-0.957-0.003-1.914,0.002-2.871c0.003-0.585-0.003-1.171,0.033-1.754
		c0.059-0.942,0.41-1.184,1.219-0.769c1.653,0.849,3.285,1.742,4.921,2.626c0.653,0.354,1.299,0.724,1.938,1.104
		c0.502,0.298,0.995,0.614,1.482,0.938c0.916,0.609,1.375,1.02-0.024,1.734c-0.852,0.435-1.683,0.909-2.518,1.376
		c-1.577,0.882-3.145,1.78-4.728,2.651c-0.51,0.28-1.049,0.508-1.586,0.732c-0.218,0.091-0.591-0.129-0.628-0.358
		c-0.059-0.364-0.11-0.735-0.113-1.104c-0.014-1.435-0.006-2.87-0.006-4.306C50.5,42.207,50.502,42.207,50.504,42.207z"/>
	<path class="st0" d="M24.671,42.465c0,1.555,0.003,2.78-0.002,4.003c-0.001,0.265-0.012,0.532-0.042,0.796
		c-0.062,0.538-0.412,0.768-0.888,0.561c-0.488-0.211-0.971-0.439-1.435-0.698c-2.599-1.456-5.19-2.922-7.782-4.388
		c-0.137-0.078-0.257-0.187-0.379-0.287c-0.157-0.129-0.141-0.441,0.046-0.554c0.911-0.546,1.818-1.101,2.745-1.621
		c1.624-0.91,3.253-1.811,4.895-2.688c0.654-0.35,1.342-0.641,2.027-0.929c0.318-0.134,0.666,0.063,0.722,0.42
		c0.107,0.679,0.234,1.365,0.232,2.048C24.806,40.351,24.712,41.573,24.671,42.465z"/>
	<path class="st0" d="M25.519,56.492c0-1.275-0.001-2.55,0.001-3.825c0-0.266,0.008-0.531,0.011-0.797
		c0.012-1.104,0.391-1.443,1.482-0.816c0.92,0.529,1.874,1,2.797,1.525c1.754,0.999,3.497,2.018,5.242,3.032
		c0.229,0.133,0.448,0.283,0.661,0.44c0.224,0.165,0.252,0.522,0.046,0.695c-0.242,0.203-0.493,0.404-0.765,0.562
		c-2.618,1.52-5.24,3.03-7.862,4.54c-0.275,0.159-0.555,0.313-0.845,0.441c-0.313,0.139-0.678-0.055-0.729-0.39
		c-0.056-0.366-0.096-0.737-0.099-1.107c-0.011-1.434-0.005-2.868-0.005-4.303C25.477,56.491,25.497,56.492,25.519,56.492z"/>
	<path class="st0" d="M49.908,23.319c-0.032,0.322-0.05,0.642-0.098,0.957c-0.231,1.536-0.24,3.071-0.044,4.612
		c0.047,0.365,0.019,0.742-0.005,1.111c-0.05,0.797-0.108,1.593-0.184,2.388c-0.029,0.314-0.093,0.627-0.175,0.932
		c-0.062,0.232-0.417,0.424-0.647,0.344c-0.399-0.139-0.811-0.273-1.175-0.483c-2.536-1.46-5.062-2.938-7.588-4.417
		c-0.134-0.078-0.241-0.205-0.352-0.318c-0.183-0.186-0.176-0.539,0.029-0.719c0.198-0.175,0.402-0.351,0.63-0.483
		c1.518-0.883,3.047-1.747,4.563-2.632c1.01-0.59,1.997-1.217,3.007-1.806c0.458-0.267,0.943-0.488,1.423-0.717
		c0.169-0.08,0.47,0.095,0.498,0.282C49.84,22.687,49.871,23.004,49.908,23.319z"/>
	<path class="st0" d="M49.563,54.362c-0.077,1.388-0.173,2.396-0.178,3.404c-0.004,0.849,0.111,1.696,0.148,2.545
		c0.023,0.528,0.03,1.062-0.009,1.588c-0.03,0.397-0.461,0.628-0.837,0.474c-0.294-0.12-0.579-0.269-0.852-0.432
		c-1.597-0.956-3.183-1.93-4.783-2.881c-1.096-0.651-2.209-1.272-3.312-1.913c-0.229-0.133-0.448-0.285-0.66-0.444
		c-0.212-0.158-0.186-0.521,0.045-0.685c0.173-0.123,0.347-0.25,0.536-0.34c2.792-1.322,5.405-2.971,8.111-4.45
		c0.187-0.102,0.37-0.21,0.562-0.298c0.488-0.221,0.878-0.034,0.936,0.479C49.396,52.519,49.492,53.631,49.563,54.362z"/>
	<path class="st0" d="M25.708,30.441c-0.047-2.28-0.098-4.559-0.137-6.839c-0.006-0.316,0.025-0.636,0.074-0.948
		c0.047-0.306,0.428-0.544,0.732-0.439c0.347,0.119,0.688,0.27,1.006,0.454c2.064,1.2,4.129,2.401,6.178,3.627
		c0.771,0.462,1.508,0.986,2.249,1.499c0.215,0.148,0.205,0.542,0.014,0.71c-0.119,0.105-0.24,0.211-0.374,0.294
		c-2.761,1.706-5.722,3.027-8.613,4.481c-0.14,0.07-0.298,0.112-0.452,0.144c-0.244,0.049-0.409-0.085-0.496-0.293
		c-0.061-0.144-0.093-0.307-0.101-0.464c-0.038-0.741-0.063-1.484-0.093-2.226C25.699,30.441,25.703,30.441,25.708,30.441z"/>
</g>
</svg>
