<?xml version="1.0" encoding="utf-8"?>
<!-- Generator: Adobe Illustrator 16.0.0, SVG Export Plug-In . SVG Version: 6.00 Build 0)  -->
<!DOCTYPE svg PUBLIC "-//W3C//DTD SVG 1.1//EN" "http://www.w3.org/Graphics/SVG/1.1/DTD/svg11.dtd">
<svg version="1.1" id="Layer_1" xmlns="http://www.w3.org/2000/svg" xmlns:xlink="http://www.w3.org/1999/xlink" x="0px" y="0px"
	 width="50.325px" height="47.778px" viewBox="0 0 50.325 47.778" style="enable-background:new 0 0 50.325 47.778;"
	 xml:space="preserve">
<style type="text/css">
<![CDATA[
	.st0{fill-rule:evenodd;clip-rule:evenodd;fill:#A8224F;}
	.st1{fill-rule:evenodd;clip-rule:evenodd;fill:#582659;}
]]>
</style>
<path class="st1" d="M29.192,25.85c-0.055-0.811,0.326-1.292,1.057-1.605c1.908-0.817,3.8-1.676,5.704-2.504
	c0.635-0.275,1.282-0.523,1.937-0.751c0.84-0.293,1.666-0.25,2.484,0.135c2.024,0.953,4.043,1.919,6.094,2.814
	c1.035,0.453,1.588,1.206,1.807,2.264c0.301,1.46,0.586,2.922,0.895,4.38c0.308,1.458,0.637,2.913,0.951,4.37
	c0.078,0.363,0.157,0.73,0.197,1.1c0.053,0.502-0.146,0.846-0.593,1.016c-0.796,0.301-1.597,0.593-2.405,0.859
	c-2.124,0.7-4.251,1.389-6.379,2.074c-2.224,0.716-2.489,0.682-4.467-0.587c-0.537-0.345-1.049-0.729-1.577-1.089
	c-1.102-0.746-2.206-1.489-3.312-2.229c-0.834-0.557-1.393-1.223-1.469-2.316c-0.126-1.803-0.396-3.597-0.609-5.394
	C29.405,27.541,29.298,26.696,29.192,25.85z"/>
<path class="st1" d="M33.984,0.751c1.659,0.088,3.093,0.17,4.528,0.238c0.691,0.033,1.385,0.029,2.076,0.061
	c0.425,0.019,0.857,0.032,1.27,0.123c0.785,0.172,1.321,0.605,1.486,1.463c0.481,2.511,0.994,5.015,1.506,7.52
	c0.137,0.671,0,1.261-0.405,1.808c-0.887,1.197-1.752,2.411-2.649,3.601c-0.672,0.893-1.4,1.745-2.065,2.644
	c-0.458,0.619-1.03,0.897-1.787,0.817c-0.159-0.017-0.321-0.008-0.478-0.036c-2.676-0.468-5.37-0.823-8.018-1.447
	c-0.773-0.182-1.203-0.628-1.361-1.379c-0.032-0.156-0.062-0.313-0.082-0.472c-0.226-1.797-0.439-3.595-0.677-5.39
	c-0.16-1.211,0.045-2.297,0.774-3.325c0.986-1.388,1.871-2.847,2.8-4.276c0.087-0.134,0.175-0.268,0.259-0.403
	C31.868,1.171,32.772,0.435,33.984,0.751z"/>
<path class="st1" d="M21.652,27.894c0.711-0.016,1.085,0.163,1.388,0.493c0.685,0.746,1.389,1.476,2.044,2.247
	c1.034,1.218,2.033,2.466,3.046,3.702c0.168,0.206,0.337,0.414,0.486,0.634c0.284,0.421,0.379,0.88,0.191,1.366
	c-0.25,0.646-0.514,1.287-0.768,1.932c-0.742,1.879-1.564,3.723-2.49,5.52c-0.254,0.494-0.594,0.887-1.075,1.145
	c-0.422,0.226-0.849,0.458-1.3,0.609c-2.019,0.681-4.046,1.336-6.073,1.992c-0.303,0.098-0.619,0.162-0.933,0.221
	c-0.396,0.074-0.734-0.021-0.976-0.377c-0.537-0.792-1.101-1.567-1.62-2.371c-1.011-1.564-2-3.143-2.993-4.719
	c-0.141-0.225-0.261-0.465-0.369-0.707c-0.157-0.354-0.206-0.732-0.04-1.087c0.383-0.816,0.628-1.687,1.16-2.448
	c0.699-0.998,1.353-2.032,1.716-3.229c0.151-0.496,0.503-0.933,0.777-1.389c0.285-0.475,0.71-0.779,1.219-0.987
	c1.773-0.726,3.538-1.474,5.317-2.183C20.852,28.063,21.381,27.969,21.652,27.894z"/>
<path class="st1" d="M17.105,0.101c0.905,0,1.811,0.02,2.715-0.005c1.004-0.027,1.734,0.37,2.23,1.251
	c0.99,1.761,2.013,3.503,3,5.267c0.205,0.367,0.31,0.79,0.462,1.187c0.205,0.536,0.135,1.046-0.145,1.534
	c-1.167,2.031-2.327,4.066-3.508,6.088c-0.33,0.565-0.879,0.767-1.512,0.653c-1.886-0.34-3.767-0.704-5.652-1.047
	c-0.954-0.174-1.631-0.668-2.11-1.531c-0.98-1.767-2.014-3.505-3.039-5.248C9.071,7.442,9.032,6.659,9.518,5.837
	c0.812-1.375,1.597-2.765,2.397-4.146c0.106-0.184,0.25-0.346,0.36-0.528c0.518-0.865,1.267-1.221,2.277-1.156
	c0.848,0.054,1.702,0.011,2.554,0.011C17.105,0.046,17.105,0.074,17.105,0.101z"/>
<path class="st1" d="M8.912,29.949c-0.957,0-1.915,0.013-2.871-0.005c-0.477-0.009-0.958-0.04-1.427-0.119
	c-0.543-0.092-0.995-0.375-1.296-0.851c-0.994-1.573-1.99-3.145-2.968-4.728c-0.456-0.737-0.451-1.525-0.075-2.288
	c0.352-0.715,0.75-1.407,1.144-2.1c0.552-0.971,1.127-1.928,1.678-2.899c0.46-0.811,1.097-1.216,2.074-1.193
	c2.02,0.049,4.041,0.029,6.062,0.012c0.802-0.006,1.482,0.268,1.984,0.856c1.311,1.536,2.587,3.102,3.862,4.667
	c0.488,0.598,0.52,1.282,0.167,1.946c-0.5,0.939-1.034,1.859-1.576,2.773c-0.569,0.961-1.195,1.889-1.738,2.863
	c-0.415,0.742-1.016,1.039-1.829,1.031c-1.063-0.009-2.126-0.002-3.19-0.002C8.912,29.924,8.912,29.936,8.912,29.949z"/>
<path class="st0" d="M22.93,17.631c1.325,0.089,2.455,0.379,3.573,0.717c0.436,0.132,0.748,0.433,0.816,0.891
	c0.188,1.257,0.363,2.517,0.51,3.78c0.06,0.516-0.188,0.953-0.637,1.198c-1.168,0.636-2.396,1.138-3.686,1.466
	c-0.609,0.155-1.185-0.024-1.602-0.482c-0.676-0.745-1.31-1.529-1.945-2.31c-0.45-0.553-0.49-1.178-0.15-1.787
	c0.491-0.878,1.032-1.728,1.544-2.595C21.747,17.846,22.308,17.535,22.93,17.631z"/>
</svg>
